# xmcd CD database file
#
# Track frame offsets:
#	150
#	5662
#	28555
#	58072
#	73387
#	88455
#	110657
#	127975
#	150812
#	175195
#
# Disc length: 2544 seconds
#
# Revision: 0
# Processed by: cddbd v1.5.1PL0 Copyright (c) Steve Scherf et al.
# Submitted via: CDex 1.51
#
DISCID=8409ee0a
DTITLE=島本須美 - 風の贈り物
DYEAR=1900
DGENRE=Vocal
TTITLE0=愛してますか…
TTITLE1=なつかしい季節
TTITLE2=窓辺
TTITLE3=愛の歌
TTITLE4=約束
TTITLE5=風になる瞬間
TTITLE6=眠れない夜の子守歌
TTITLE7=幻夢
TTITLE8=見つめたい
TTITLE9=川
EXTD=
EXTT0=
EXTT1=
EXTT2=
EXTT3=
EXTT4=
EXTT5=
EXTT6=
EXTT7=
EXTT8=
EXTT9=
PLAYORDER=
